<?xml version="1.0" encoding="UTF-8"?> <svg xmlns="http://www.w3.org/2000/svg" width="149" height="51" viewBox="0 0 149 51" fill="none"> <path d="M21.8636 20.74C14.5136 19.06 8.21363 16.89 8.21363 9.54C8.21363 5.62 9.96363 1.07 16.6136 1.07C24.3136 1.07 32.1536 7.02 30.8936 16.61L37.5436 6.39C33.8336 2.82 28.0236 0.0199968 19.9036 0.0199968C8.63363 0.0199968 1.28363 5.34 1.28363 13.95C1.28363 19.97 4.99363 27.04 18.5736 30.19C26.9036 32.15 31.5936 33.9 31.5936 40.13C31.5936 43.84 29.9136 49.86 21.7236 49.86C13.8136 49.86 5.55363 43.84 6.46363 34.18L0.023633 44.4C3.80363 48.04 10.4536 50.98 18.9236 50.98C31.2436 50.98 38.3836 44.4 38.3836 35.86C38.3836 30.68 35.6536 23.89 21.8636 20.74ZM89.6969 0.999997H43.8469L41.5369 15.42H41.8169C45.8069 5.97 50.0069 2.12 60.4369 2.05V45.31C60.4369 48.53 57.9869 49.3 53.7169 49.65V50H76.7469V49.65C72.4769 49.3 70.0269 48.53 70.0269 45.31V2.05H72.6869C80.5269 2.05 85.8469 5.9 84.9369 15.42H85.2169L89.6969 0.999997ZM148.077 28.86V28.51H120.987L119.587 29.35C131.347 29.7 133.167 30.05 133.167 32.57V44.12C131.277 46.08 128.617 47.41 124.557 47.41C112.657 47.41 103.977 35.23 103.977 20.95C103.977 7.86 110.417 1.63 118.817 1.63C129.737 1.63 135.057 11.22 131.417 20.88L131.627 20.95L141.777 7.37C138.557 3.45 132.187 0.0199968 123.017 0.0199968C108.597 0.0199968 93.5475 8.84 93.5475 25.64C93.5475 40.27 105.517 50.98 118.607 50.98C124.837 50.98 129.667 48.67 132.957 45.38L132.257 50H148.077V49.65C145.207 49.3 142.757 48.53 142.757 46.01V32.57C142.757 30.05 145.207 29.21 148.077 28.86Z" fill="white"></path> </svg> 